<?xml version="1.0" encoding="UTF-8" standalone="no"?>
<!-- Created with Inkscape (http://www.inkscape.org/) -->

<svg
   width="210mm"
   height="297mm"
   viewBox="0 0 210 297"
   version="1.1"
   id="svg5"
   inkscape:version="1.1.2 (b8e25be833, 2022-02-05)"
   sodipodi:docname="logo.svg"
   xmlns:inkscape="http://www.inkscape.org/namespaces/inkscape"
   xmlns:sodipodi="http://sodipodi.sourceforge.net/DTD/sodipodi-0.dtd"
   xmlns="http://www.w3.org/2000/svg"
   xmlns:svg="http://www.w3.org/2000/svg">
  <sodipodi:namedview
     id="namedview7"
     pagecolor="#ffffff"
     bordercolor="#666666"
     borderopacity="1.0"
     inkscape:pageshadow="2"
     inkscape:pageopacity="0.0"
     inkscape:pagecheckerboard="0"
     inkscape:document-units="mm"
     showgrid="false"
     inkscape:zoom="1.2810466"
     inkscape:cx="139.7295"
     inkscape:cy="491.7854"
     inkscape:window-width="1920"
     inkscape:window-height="1027"
     inkscape:window-x="-1928"
     inkscape:window-y="518"
     inkscape:window-maximized="1"
     inkscape:current-layer="layer1" />
  <defs
     id="defs2" />
  <g
     inkscape:label="Warstwa 1"
     inkscape:groupmode="layer"
     id="layer1">
    <path
       style="fill:#000000;stroke-width:0.264583"
       d="m 90.844104,162.6235 c -2.47703,-0.79406 -4.23462,-3.83005 -3.78392,-6.53622 0.38106,-2.28809 1.48611,-3.73944 3.56472,-4.68179 2.47241,-1.12088 6.31173,-0.28336 5.901,1.28727 -0.17688,0.6764 -0.96103,0.92077 -1.6947,0.52812 -0.97725,-0.52301 -3.55517,-0.19176 -4.36011,0.56025 -1.48826,1.3904 -1.8755,3.53347 -0.95023,5.25873 0.88502,1.65022 3.32861,2.34201 5.4996,1.55697 0.98316,-0.35552 1.68985,0.007 1.68985,0.8662 0,1.17185 -3.60566,1.88513 -5.86621,1.16047 z m -33.503788,-0.18065 c -0.222412,-0.22242 -0.3175,-1.68488 -0.3175,-4.8832 v -4.56571 l -1.890509,-0.0777 c -1.417444,-0.0583 -1.959814,-0.18805 -2.167469,-0.51858 -0.200494,-0.31913 -0.180938,-0.55655 0.07082,-0.8599 0.293425,-0.35355 1.082032,-0.41905 5.04549,-0.41905 3.963459,0 4.752065,0.0655 5.045491,0.41905 0.251759,0.30335 0.271314,0.54077 0.07082,0.8599 -0.207656,0.33053 -0.750025,0.46029 -2.16747,0.51858 l -1.890508,0.0777 v 4.37143 c 0,2.50736 -0.116793,4.58966 -0.273892,4.8832 -0.308684,0.57678 -1.048533,0.67102 -1.525275,0.19428 z m 7.9375,0 c -0.335283,-0.33529 -0.475419,-10.07561 -0.156901,-10.90566 0.260284,-0.67829 4.971834,-0.59428 6.125674,0.10923 2.234409,1.36233 2.538587,4.18256 0.663151,6.1485 -0.689827,0.72311 -0.689827,0.72311 0.364572,1.98438 1.390968,1.66385 1.480664,1.83528 1.284211,2.45425 -0.345271,1.08785 -1.299578,0.62798 -3.02469,-1.45758 -1.459855,-1.76487 -1.741826,-1.98437 -2.549134,-1.98437 -0.907716,0 -0.907716,0 -0.907716,1.4726 0,0.80993 -0.123251,1.7029 -0.273892,1.98437 -0.308684,0.57678 -1.048533,0.67102 -1.525275,0.19428 z m 5.29376,-6.21458 c 0.47693,-0.43162 0.636005,-1.81236 0.271669,-2.358 -0.369306,-0.55309 -1.354543,-0.89951 -2.558244,-0.89951 h -1.208018 v 2.0208 2.02081 l 1.510218,-0.1775 c 0.830622,-0.0976 1.723591,-0.37059 1.984375,-0.6066 z m 4.97859,6.14305 c -0.289904,-0.34931 -0.104584,-1.01243 1.177515,-4.21344 2.346884,-5.85945 3.049982,-7.17149 3.843052,-7.17149 0.759521,0 0.921051,0.2931 3.626721,6.58079 0.9313,2.16423 1.65713,4.1883 1.61296,4.49792 -0.0613,0.42957 -0.26616,0.56295 -0.86476,0.56295 -0.7018,0 -0.841,-0.14637 -1.32109,-1.38906 l -0.53663,-1.38906 h -2.445673 c -2.445677,0 -2.445677,0 -2.84325,0.99219 -0.218668,0.5457 -0.500314,1.17078 -0.625885,1.38906 -0.32022,0.55665 -1.213292,0.63376 -1.62296,0.14014 z m 6.608068,-4.48833 c 0,-0.34493 -1.4228,-3.32473 -1.587501,-3.32473 -0.1647,0 -1.5875,2.9798 -1.5875,3.32473 0,0.0632 0.714375,0.11486 1.5875,0.11486 0.873121,0 1.587501,-0.0517 1.587501,-0.11486 z m 16.98625,4.55986 c -0.33528,-0.33529 -0.47542,-10.07561 -0.1569,-10.90566 0.19094,-0.49759 1.307026,-0.55864 1.604886,-0.0878 0.11507,0.1819 0.17293,1.34276 0.12858,2.57969 l -0.0806,2.24895 1.2761,-1.1885 c 0.70185,-0.65368 1.94606,-1.82609 2.76491,-2.60536 1.52879,-1.45488 2.16877,-1.63728 2.71292,-0.77319 0.24416,0.38771 -0.0307,0.78288 -1.74813,2.51355 l -2.03783,2.0535 2.12494,2.58485 c 2.28322,2.77737 2.58949,3.69138 1.28784,3.84325 -0.56248,0.0656 -0.99756,-0.32487 -2.72449,-2.4453 -2.047,-2.51342 -2.05768,-2.52172 -2.70407,-2.09819 -0.56854,0.37252 -0.64895,0.6203 -0.64895,1.99968 0,0.86595 -0.12325,1.80476 -0.2739,2.08623 -0.30868,0.57678 -1.048526,0.67102 -1.525266,0.19428 z m 11.119946,0.007 c -0.37498,-0.37498 -0.46793,-10.43207 -0.10175,-11.00914 0.1609,-0.25356 1.0765,-0.32023 3.63397,-0.26458 3.41887,0.0744 3.41887,0.0744 3.41887,0.86813 0,0.79375 0,0.79375 -2.57969,0.86948 l -2.57968,0.0757 v 1.31334 1.31334 h 1.95198 c 2.11747,0 2.72843,0.3311 2.41767,1.31021 -0.15428,0.48611 -0.38796,0.54187 -2.27082,0.54187 h -2.09883 v 1.71021 1.71021 l 2.57968,0.0757 c 2.57969,0.0757 2.57969,0.0757 2.57969,0.86947 0,0.79375 0,0.79375 -3.31307,0.86735 -2.3521,0.0523 -3.40732,-0.0207 -3.63802,-0.25135 z m 9.78213,-0.007 c -0.33528,-0.33529 -0.47542,-10.07561 -0.1569,-10.90566 0.26029,-0.67829 4.97184,-0.59428 6.12568,0.10923 2.2344,1.36233 2.53858,4.18256 0.66315,6.1485 -0.68983,0.72311 -0.68983,0.72311 0.36457,1.98438 1.39097,1.66385 1.48066,1.83528 1.28421,2.45425 -0.34527,1.08785 -1.29958,0.62798 -3.02469,-1.45758 -1.45985,-1.76487 -1.74183,-1.98437 -2.54913,-1.98437 -0.90772,0 -0.90772,0 -0.90772,1.4726 0,0.80993 -0.12325,1.7029 -0.27389,1.98437 -0.30869,0.57678 -1.04853,0.67102 -1.52528,0.19428 z m 5.29376,-6.21458 c 0.47693,-0.43162 0.63601,-1.81236 0.27167,-2.358 -0.3693,-0.55309 -1.35454,-0.89951 -2.55824,-0.89951 h -1.20802 v 2.0208 2.02081 l 1.51022,-0.1775 c 0.83062,-0.0976 1.72359,-0.37059 1.98437,-0.6066 z M 86.335054,143.6442 c -2.09574,-2.07367 -4.71195,-4.90141 -5.813777,-6.28386 -5.513036,-6.91709 -9.083688,-14.10592 -10.559659,-21.25986 -0.738901,-3.5814 -0.608054,-8.87156 0.288912,-11.68076 2.986691,-9.353989 10.830904,-15.209835 20.374374,-15.209835 9.543456,0 17.387666,5.855846 20.374366,15.209835 0.89696,2.8092 1.02781,8.09936 0.28891,11.68076 -1.47597,7.15394 -5.04663,14.34277 -10.55966,21.25986 -2.486476,3.11975 -9.455016,10.05417 -10.103616,10.05417 -0.26367,0 -2.1941,-1.69664 -4.28985,-3.77031 z m -1.14911,-20.89481 c 0.34943,-0.49889 0.41187,-1.73341 0.41187,-8.14321 0,-6.40981 -0.0624,-7.64432 -0.41187,-8.14321 -0.49234,-0.70291 -1.58868,-0.77514 -2.27927,-0.15016 -0.44811,0.40553 -0.48386,1.01981 -0.48386,8.31548 0,6.80867 0.0564,7.93401 0.41578,8.29336 0.61713,0.61714 1.85822,0.52606 2.34735,-0.17226 z m 7.50271,0.27054 c 0.19821,-0.19821 0.3175,-1.18102 0.3175,-2.61583 v -2.29832 l 2.71198,-0.10962 c 1.81456,-0.0734 2.97996,-0.25206 3.52181,-0.54008 2.703006,-1.43677 3.928026,-4.68257 2.884046,-7.64153 -0.52714,-1.49408 -1.51875,-2.53091 -3.164716,-3.30904 -1.17903,-0.55739 -1.69845,-0.62569 -4.77573,-0.628 -2.33587,-0.002 -3.55552,0.10012 -3.77031,0.31492 -0.45385,0.45384 -0.45385,16.37365 0,16.8275 0.17462,0.17462 0.68659,0.3175 1.13771,0.3175 0.45111,0 0.96308,-0.14288 1.13771,-0.3175 z m 0.3175,-11.05959 v -3.175 h 1.70256 c 1.9856,0 2.91447,0.29786 3.91983,1.25696 0.57577,0.54928 0.72761,0.93421 0.72761,1.84456 0,0.63274 -0.18568,1.43381 -0.41261,1.78015 -0.58762,0.89682 -2.23131,1.46833 -4.22296,1.46833 h -1.71443 z"
       id="path739" />
  </g>
</svg>
