<svg xmlns:inkscape="http://www.inkscape.org/namespaces/inkscape" xmlns:sodipodi="http://sodipodi.sourceforge.net/DTD/sodipodi-0.dtd" xmlns="http://www.w3.org/2000/svg" xmlns:svg="http://www.w3.org/2000/svg" version="1.1" id="svg5" inkscape:version="1.1.2 (b8e25be833, 2022-02-05)" sodipodi:docname="logo.svg" viewBox="52.54 88.08 76.3 75.24">
  <sodipodi:namedview id="namedview7" pagecolor="#ffffff" bordercolor="#666666" borderopacity="1.0" inkscape:pageshadow="2" inkscape:pageopacity="0.0" inkscape:pagecheckerboard="0" inkscape:document-units="mm" showgrid="false" inkscape:zoom="1.8116735" inkscape:cx="259.42865" inkscape:cy="505.60988" inkscape:window-width="1920" inkscape:window-height="1027" inkscape:window-x="-8" inkscape:window-y="-8" inkscape:window-maximized="1" inkscape:current-layer="layer1"/>
  <defs id="defs2"/>
  <g inkscape:label="Warstwa 1" inkscape:groupmode="layer" id="layer1">
    <path style="fill:#000000;stroke-width:0.264583" d="m 90.844104,162.6235 c -2.47703,-0.79406 -4.23462,-3.83005 -3.78392,-6.53622 0.38106,-2.28809 1.48611,-3.73944 3.56472,-4.68179 2.47241,-1.12088 6.31173,-0.28336 5.901,1.28727 -0.17688,0.6764 -0.96103,0.92077 -1.6947,0.52812 -0.97725,-0.52301 -3.55517,-0.19176 -4.36011,0.56025 -1.48826,1.3904 -1.8755,3.53347 -0.95023,5.25873 0.88502,1.65022 3.32861,2.34201 5.4996,1.55697 0.98316,-0.35552 1.68985,0.007 1.68985,0.8662 0,1.17185 -3.60566,1.88513 -5.86621,1.16047 z m -33.503788,-0.18065 c -0.222412,-0.22242 -0.3175,-1.68488 -0.3175,-4.8832 v -4.56571 l -1.890509,-0.0777 c -1.417444,-0.0583 -1.959814,-0.18805 -2.167469,-0.51858 -0.200494,-0.31913 -0.180938,-0.55655 0.07082,-0.8599 0.293425,-0.35355 1.082032,-0.41905 5.04549,-0.41905 3.963459,0 4.752065,0.0655 5.045491,0.41905 0.251759,0.30335 0.271314,0.54077 0.07082,0.8599 -0.207656,0.33053 -0.750025,0.46029 -2.16747,0.51858 l -1.890508,0.0777 v 4.37143 c 0,2.50736 -0.116793,4.58966 -0.273892,4.8832 -0.308684,0.57678 -1.048533,0.67102 -1.525275,0.19428 z m 7.9375,0 c -0.335283,-0.33529 -0.475419,-10.07561 -0.156901,-10.90566 0.260284,-0.67829 4.971834,-0.59428 6.125674,0.10923 2.234409,1.36233 2.538587,4.18256 0.663151,6.1485 -0.689827,0.72311 -0.689827,0.72311 0.364572,1.98438 1.390968,1.66385 1.480664,1.83528 1.284211,2.45425 -0.345271,1.08785 -1.299578,0.62798 -3.02469,-1.45758 -1.459855,-1.76487 -1.741826,-1.98437 -2.549134,-1.98437 -0.907716,0 -0.907716,0 -0.907716,1.4726 0,0.80993 -0.123251,1.7029 -0.273892,1.98437 -0.308684,0.57678 -1.048533,0.67102 -1.525275,0.19428 z m 5.29376,-6.21458 c 0.47693,-0.43162 0.636005,-1.81236 0.271669,-2.358 -0.369306,-0.55309 -1.354543,-0.89951 -2.558244,-0.89951 h -1.208018 v 2.0208 2.02081 l 1.510218,-0.1775 c 0.830622,-0.0976 1.723591,-0.37059 1.984375,-0.6066 z m 4.97859,6.14305 c -0.289904,-0.34931 -0.104584,-1.01243 1.177515,-4.21344 2.346884,-5.85945 3.049982,-7.17149 3.843052,-7.17149 0.759521,0 0.921051,0.2931 3.626721,6.58079 0.9313,2.16423 1.65713,4.1883 1.61296,4.49792 -0.0613,0.42957 -0.26616,0.56295 -0.86476,0.56295 -0.7018,0 -0.841,-0.14637 -1.32109,-1.38906 l -0.53663,-1.38906 h -2.445673 c -2.445677,0 -2.445677,0 -2.84325,0.99219 -0.218668,0.5457 -0.500314,1.17078 -0.625885,1.38906 -0.32022,0.55665 -1.213292,0.63376 -1.62296,0.14014 z m 6.608068,-4.48833 c 0,-0.34493 -1.4228,-3.32473 -1.587501,-3.32473 -0.1647,0 -1.5875,2.9798 -1.5875,3.32473 0,0.0632 0.714375,0.11486 1.5875,0.11486 0.873121,0 1.587501,-0.0517 1.587501,-0.11486 z m 16.98625,4.55986 c -0.33528,-0.33529 -0.47542,-10.07561 -0.1569,-10.90566 0.19094,-0.49759 1.307026,-0.55864 1.604886,-0.0878 0.11507,0.1819 0.17293,1.34276 0.12858,2.57969 l -0.0806,2.24895 1.2761,-1.1885 c 0.70185,-0.65368 1.94606,-1.82609 2.76491,-2.60536 1.52879,-1.45488 2.16877,-1.63728 2.71292,-0.77319 0.24416,0.38771 -0.0307,0.78288 -1.74813,2.51355 l -2.03783,2.0535 2.12494,2.58485 c 2.28322,2.77737 2.58949,3.69138 1.28784,3.84325 -0.56248,0.0656 -0.99756,-0.32487 -2.72449,-2.4453 -2.047,-2.51342 -2.05768,-2.52172 -2.70407,-2.09819 -0.56854,0.37252 -0.64895,0.6203 -0.64895,1.99968 0,0.86595 -0.12325,1.80476 -0.2739,2.08623 -0.30868,0.57678 -1.048526,0.67102 -1.525266,0.19428 z m 11.119946,0.007 c -0.37498,-0.37498 -0.46793,-10.43207 -0.10175,-11.00914 0.1609,-0.25356 1.0765,-0.32023 3.63397,-0.26458 3.41887,0.0744 3.41887,0.0744 3.41887,0.86813 0,0.79375 0,0.79375 -2.57969,0.86948 l -2.57968,0.0757 v 1.31334 1.31334 h 1.95198 c 2.11747,0 2.72843,0.3311 2.41767,1.31021 -0.15428,0.48611 -0.38796,0.54187 -2.27082,0.54187 h -2.09883 v 1.71021 1.71021 l 2.57968,0.0757 c 2.57969,0.0757 2.57969,0.0757 2.57969,0.86947 0,0.79375 0,0.79375 -3.31307,0.86735 -2.3521,0.0523 -3.40732,-0.0207 -3.63802,-0.25135 z m 9.78213,-0.007 c -0.33528,-0.33529 -0.47542,-10.07561 -0.1569,-10.90566 0.26029,-0.67829 4.97184,-0.59428 6.12568,0.10923 2.2344,1.36233 2.53858,4.18256 0.66315,6.1485 -0.68983,0.72311 -0.68983,0.72311 0.36457,1.98438 1.39097,1.66385 1.48066,1.83528 1.28421,2.45425 -0.34527,1.08785 -1.29958,0.62798 -3.02469,-1.45758 -1.45985,-1.76487 -1.74183,-1.98437 -2.54913,-1.98437 -0.90772,0 -0.90772,0 -0.90772,1.4726 0,0.80993 -0.12325,1.7029 -0.27389,1.98437 -0.30869,0.57678 -1.04853,0.67102 -1.52528,0.19428 z m 5.29376,-6.21458 c 0.47693,-0.43162 0.63601,-1.81236 0.27167,-2.358 -0.3693,-0.55309 -1.35454,-0.89951 -2.55824,-0.89951 h -1.20802 v 2.0208 2.02081 l 1.51022,-0.1775 c 0.83062,-0.0976 1.72359,-0.37059 1.98437,-0.6066 z M 86.335054,143.6442 c -2.09574,-2.07367 -4.71195,-4.90141 -5.813777,-6.28386 -5.513036,-6.91709 -9.083688,-14.10592 -10.559659,-21.25986 -0.738901,-3.5814 -0.608054,-8.87156 0.288912,-11.68076 2.986691,-9.353989 10.830904,-15.209835 20.374374,-15.209835 9.543456,0 17.387666,5.855846 20.374366,15.209835 0.89696,2.8092 1.02781,8.09936 0.28891,11.68076 -1.47597,7.15394 -5.04663,14.34277 -10.55966,21.25986 -2.486476,3.11975 -9.455016,10.05417 -10.103616,10.05417 -0.26367,0 -2.1941,-1.69664 -4.28985,-3.77031 z m -1.14911,-20.89481 c 0.34943,-0.49889 0.41187,-1.73341 0.41187,-8.14321 0,-6.40981 -0.0624,-7.64432 -0.41187,-8.14321 -0.49234,-0.70291 -1.58868,-0.77514 -2.27927,-0.15016 -0.44811,0.40553 -0.48386,1.01981 -0.48386,8.31548 0,6.80867 0.0564,7.93401 0.41578,8.29336 0.61713,0.61714 1.85822,0.52606 2.34735,-0.17226 z m 7.50271,0.27054 c 0.19821,-0.19821 0.3175,-1.18102 0.3175,-2.61583 v -2.29832 l 2.71198,-0.10962 c 1.81456,-0.0734 2.97996,-0.25206 3.52181,-0.54008 2.703006,-1.43677 3.928026,-4.68257 2.884046,-7.64153 -0.52714,-1.49408 -1.51875,-2.53091 -3.164716,-3.30904 -1.17903,-0.55739 -1.69845,-0.62569 -4.77573,-0.628 -2.33587,-0.002 -3.55552,0.10012 -3.77031,0.31492 -0.45385,0.45384 -0.45385,16.37365 0,16.8275 0.17462,0.17462 0.68659,0.3175 1.13771,0.3175 0.45111,0 0.96308,-0.14288 1.13771,-0.3175 z m 0.3175,-11.05959 v -3.175 h 1.70256 c 1.9856,0 2.91447,0.29786 3.91983,1.25696 0.57577,0.54928 0.72761,0.93421 0.72761,1.84456 0,0.63274 -0.18568,1.43381 -0.41261,1.78015 -0.58762,0.89682 -2.23131,1.46833 -4.22296,1.46833 h -1.71443 z" id="path739"/>
    <path style="fill:#ffffff;stroke:#000000;stroke-width:2.65408;stroke-linecap:round;stroke-linejoin:round" d="m 333.5336,548.9652 c -9.92001,-9.17456 -24.68833,-24.8837 -31.08113,-33.06116 -17.80032,-22.76957 -31.73185,-51.01087 -37.19342,-75.39661 -1.54967,-6.91925 -1.79248,-10.07477 -1.73053,-22.48985 0.0839,-16.82418 1.17324,-22.202 6.91275,-34.1285 11.15963,-23.18929 29.09167,-38.03542 53.27296,-44.10528 10.02754,-2.51706 28.21411,-2.49973 37.87742,0.0361 13.31645,3.49447 22.89933,8.41955 32.77103,16.84255 12.40717,10.58637 22.9789,28.41314 26.13662,44.07331 1.88301,9.33845 1.65036,28.15457 -0.47426,38.35835 -5.30787,25.49168 -20.11036,55.27838 -39.56833,79.62239 -7.56109,9.45976 -35.64218,37.46937 -37.56498,37.46937 -0.87284,0 -4.96385,-3.15659 -9.35813,-7.22066 z m -11.99506,-84.03743 c 2.16391,-2.16391 2.6013,-9.186 2.29207,-36.79793 -0.23779,-21.23208 -0.41868,-24.07563 -1.65111,-25.95534 -1.10069,-1.67878 -1.98914,-2.11099 -4.33932,-2.11099 -1.62539,0 -3.63713,0.4986 -4.47053,1.10799 -1.45585,1.06455 -1.51526,2.32192 -1.51526,32.06801 0,29.74609 0.0594,31.00346 1.51526,32.068 2.16597,1.5838 6.40229,1.38686 8.16889,-0.37974 z m 28.54893,0.4257 c 1.22272,-0.89407 1.50908,-2.43723 1.81069,-9.75765 0.23388,-5.6765 0.66224,-8.70176 1.23376,-8.71332 0.48152,-0.01 5.22709,-0.35603 10.54569,-0.76955 8.06663,-0.62717 10.22261,-1.07558 13.00147,-2.7041 8.92927,-5.2329 13.02447,-16.88865 9.81524,-27.9361 -1.37605,-4.73687 -6.15581,-10.18908 -11.3141,-12.90583 -3.85535,-2.03052 -4.50524,-2.11431 -18.05035,-2.32733 -8.38194,-0.13182 -14.52344,0.0915 -15.22193,0.55361 -1.00885,0.66738 -1.17092,5.15834 -1.17092,32.44631 0,27.30326 0.1615,31.77382 1.17092,32.4119 1.73113,1.09433 6.51373,0.92012 8.17953,-0.29794 z" id="path44" transform="scale(0.26458333)"/>
    <path style="fill:#ffffff;stroke:#000000;stroke-width:2.65408;stroke-linecap:round;stroke-linejoin:round" d="m 352.05589,423.0162 v -11.39422 l 7.35063,0.27051 c 6.70776,0.24684 7.64648,0.47826 10.73341,2.64608 4.24179,2.97882 5.53337,6.34195 4.42727,11.52813 -1.24946,5.85832 -6.12955,8.34373 -16.3829,8.34373 h -6.12841 z" id="path83" transform="scale(0.26458333)"/>
    <path style="fill:#ffffff;stroke:#000000;stroke-width:0.66352;stroke-linecap:round;stroke-linejoin:round" d="m 274.41294,614.82523 c -1.91953,-0.87102 -4.15528,-3.01648 -8.53932,-8.19449 -3.12371,-3.68943 -5.01508,-5.53074 -6.25739,-6.09178 -0.75917,-0.34286 -1.31814,-0.42655 -2.89255,-0.43313 -2.2183,-0.009 -2.70653,0.17189 -2.9917,1.11007 -0.10629,0.34966 -0.24248,2.1831 -0.30265,4.07432 -0.17992,5.65485 -0.61249,7.69025 -1.87719,8.83283 -1.18083,1.06681 -2.61834,1.17027 -4.04127,0.29085 -0.84373,-0.52146 -0.94009,-0.78575 -1.20155,-3.29576 -0.87743,-8.42328 -0.96132,-36.09162 -0.11611,-38.2942 0.17376,-0.45283 1.15477,-0.91083 2.65362,-1.23889 1.92359,-0.42103 8.30971,-0.58462 11.48718,-0.29426 6.81331,0.62259 9.24413,1.57073 12.24126,4.77467 1.40564,1.50263 2.4477,3.28088 3.14107,5.36018 0.43123,1.29319 0.49957,1.84035 0.50373,4.03316 0.004,2.36258 -0.039,2.66443 -0.63236,4.39094 -0.75813,2.20589 -1.73842,3.91246 -3.28537,5.71946 -2.1985,2.56806 -2.40583,2.87205 -2.40583,3.52727 0,0.83772 0.62347,1.77149 3.59869,5.38974 4.39599,5.34609 4.9544,6.31214 4.58958,7.94005 -0.26086,1.16401 -0.6503,1.88832 -1.28276,2.38582 -0.64394,0.50652 -1.29391,0.51009 -2.38908,0.0131 z m -16.90865,-21.7699 c 7.0424,-0.8044 9.62,-1.92439 10.52148,-4.57166 0.45619,-1.33962 0.63622,-4.64131 0.31759,-5.82457 -0.45914,-1.70512 -2.52194,-3.26151 -5.37478,-4.05529 -0.8615,-0.2397 -2.2668,-0.34909 -5.31792,-0.41393 l -4.147,-0.0881 v 7.73679 7.7368 l 0.63425,-0.10396 c 0.34883,-0.0572 1.86371,-0.2444 3.36638,-0.41604 z" id="path122" transform="scale(0.26458333)"/>
    <path style="fill:#ffffff;stroke:#000000;stroke-width:0.66352;stroke-linecap:round;stroke-linejoin:round" d="m 218.24297,614.77599 c -0.34157,-0.13167 -0.83671,-0.42788 -1.10031,-0.65824 -1.21227,-1.0594 -1.34043,-2.89476 -1.44582,-20.70647 l -0.0904,-15.27072 h -0.45318 c -0.24925,0 -2.45824,-0.0919 -4.90885,-0.20411 -5.04918,-0.23131 -7.70008,-0.5605 -8.78145,-1.09051 -0.90429,-0.44321 -1.62639,-1.47136 -1.62639,-2.31571 0,-0.82362 0.71592,-1.86956 1.5638,-2.28466 1.57248,-0.76984 3.02832,-0.83778 17.9515,-0.83778 17.46869,0 18.26376,0.0752 19.43039,1.8381 0.57947,0.87564 0.57723,1.77748 -0.007,2.66854 -0.89015,1.35855 -3.12992,1.74424 -12.44706,2.14339 l -2.87851,0.12332 -0.002,10.46918 c -0.003,15.44615 -0.36114,22.80601 -1.19611,24.56162 -0.67514,1.41956 -2.51851,2.13869 -4.00918,1.56405 z" id="path161" transform="scale(0.26458333)"/>
    <path style="fill:#ffffff;stroke:#000000;stroke-width:0.66352;stroke-linecap:round;stroke-linejoin:round" d="m 286.66156,614.37958 c -1.64439,-0.85982 -1.78717,-1.73262 -0.82985,-5.07281 1.32274,-4.61522 9.11786,-23.83878 12.4539,-30.7126 3.04035,-6.26453 4.65956,-8.10842 6.83404,-7.78234 1.85886,0.27875 3.11966,2.29655 7.3065,11.69329 5.33472,11.97298 9.49837,22.08535 10.93871,26.56718 1.22491,3.81144 1.00084,4.93685 -1.06846,5.36643 -1.719,0.35686 -3.38143,-0.027 -4.16102,-0.96082 -0.43028,-0.51542 -1.66176,-3.27039 -2.86346,-6.40593 l -1.14059,-2.97608 h -7.7089 c -4.81472,0 -8.18032,0.0821 -8.96458,0.21867 -1.74915,0.3046 -2.33472,0.86995 -3.36405,3.24784 -1.49432,3.45208 -2.54868,5.59703 -2.98405,6.07062 -1.08845,1.18401 -2.99849,1.50458 -4.44819,0.74655 z m 23.58094,-17.41825 c 0.35809,-0.10699 0.41417,-0.22373 0.30985,-0.64503 -0.39381,-1.59045 -3.95303,-9.25666 -5.20895,-11.21957 -0.72298,-1.12996 -0.73556,-1.13865 -1.13149,-0.78061 -0.50313,0.45499 -4.406,8.36788 -5.25568,10.65565 -0.34865,0.93876 -0.56794,1.77304 -0.48729,1.85395 0.0806,0.0809 0.7323,0.20524 1.44812,0.2763 1.56352,0.15521 9.70643,0.0443 10.32544,-0.14069 z" id="path200" transform="scale(0.26458333)"/>
    <path style="fill:#ffffff;stroke:#000000;stroke-width:0.938359;stroke-linecap:round;stroke-linejoin:round" d="m 346.46425,615.20283 c -4.62379,-0.88427 -7.14531,-2.22083 -10.44895,-5.53858 -4.92012,-4.94113 -7.30023,-10.93195 -6.96036,-17.51951 0.45536,-8.82634 5.31939,-16.00561 13.29363,-19.6213 7.72277,-3.50167 19.3916,-2.28142 21.96478,2.29694 1.07824,1.91847 0.1135,3.95058 -2.20536,4.64533 -1.07018,0.32063 -1.36205,0.27772 -3.88842,-0.57167 -2.66996,-0.89767 -2.80758,-0.91467 -6.12011,-0.75591 -7.07283,0.33898 -10.14572,1.87141 -13.18644,6.576 -1.54479,2.39009 -2.23507,4.61355 -2.40877,7.7589 -0.17453,3.16039 0.19995,5.40788 1.30842,7.85255 3.03125,6.68527 12.09523,9.69146 20.91002,6.93507 2.26567,-0.70847 3.76988,-0.74273 4.98214,-0.11346 0.96191,0.49931 1.70318,1.82399 1.70318,3.04364 0,1.69311 -2.85233,3.57504 -6.95143,4.58647 -2.99492,0.73898 -9.20171,0.95921 -11.99233,0.42553 z" id="path239" transform="scale(0.26458333)"/>
    <path style="fill:#ffffff;stroke:#000000;stroke-width:0.938359;stroke-linecap:round;stroke-linejoin:round" d="m 375.98628,614.64992 c -1.20777,-0.54353 -1.38475,-0.99525 -1.74482,-4.45355 -0.44515,-4.27543 -0.69168,-31.57977 -0.31496,-34.88389 0.36219,-3.17673 0.70897,-3.63736 2.87347,-3.81685 1.8252,-0.15136 3.13053,0.42922 3.43839,1.52932 0.11605,0.41467 0.1861,4.5866 0.15568,9.27096 l -0.0553,8.51702 0.60365,-0.51337 c 0.332,-0.28235 3.48184,-3.21572 6.99963,-6.5186 9.7171,-9.12343 11.15924,-10.40787 12.65447,-11.27059 1.9443,-1.12184 3.22405,-1.08239 4.44341,0.13697 0.55197,0.55197 0.93836,1.21435 0.93836,1.60861 0,1.23357 -1.74852,3.34285 -8.19902,9.89068 l -6.40723,6.50391 4.86489,5.91555 c 7.80097,9.48573 10.41114,13.23977 10.96166,15.76547 0.42069,1.93008 -2.82381,3.19124 -4.90339,1.90598 -1.29539,-0.80059 -3.45924,-3.15417 -8.02738,-8.73122 -5.86659,-7.16228 -7.36418,-8.68244 -8.55357,-8.68244 -0.79487,0 -3.04356,1.60114 -3.62059,2.57798 -0.38466,0.65116 -0.53084,1.81934 -0.70385,5.62467 -0.1201,2.64155 -0.36165,5.49301 -0.53678,6.33658 -0.58251,2.80596 -2.72296,4.25155 -4.8667,3.28681 z" id="path278" transform="scale(0.26458333)"/>
    <path style="fill:#ffffff;stroke:#000000;stroke-width:0.938359;stroke-linecap:round;stroke-linejoin:round" d="m 418.94967,614.59122 c -1.46714,-0.27596 -2.17676,-0.71396 -2.33605,-1.44189 -1.06385,-4.86155 -1.27416,-36.73214 -0.2656,-40.25004 0.0959,-0.33442 0.56074,-0.75197 1.04237,-0.93628 2.10099,-0.80403 22.58517,-0.5116 24.38367,0.34809 0.91842,0.43901 1.36047,1.83417 1.07064,3.37907 -0.30337,1.61714 -0.97979,1.77304 -9.05312,2.08659 -3.83694,0.14902 -7.75247,0.27297 -8.70118,0.27544 l -1.72493,0.005 v 5.07369 5.07369 l 6.41672,0.13428 c 7.14336,0.14949 8.81777,0.45445 9.87769,1.799 1.05483,1.3381 0.20052,4.06135 -1.41594,4.51353 -0.3658,0.10233 -3.8631,0.19843 -7.77178,0.21356 l -7.10669,0.0275 v 6.59893 6.59894 l 2.2769,0.15463 c 1.2523,0.0851 4.95339,0.2279 8.22464,0.31743 6.57965,0.18008 7.89873,0.37163 8.61063,1.25037 0.60216,0.74329 0.63581,2.67789 0.0609,3.49875 -0.77408,1.10515 -1.97682,1.23051 -12.68731,1.32239 -5.61635,0.0482 -10.52204,0.0292 -10.90152,-0.0422 z" id="path317" transform="scale(0.26458333)"/>
    <path style="fill:#ffffff;stroke:#000000;stroke-width:0.938359;stroke-linecap:round;stroke-linejoin:round" d="m 454.87266,614.58603 c -0.50677,-0.25714 -1.02965,-0.75225 -1.16196,-1.10025 -0.13231,-0.348 -0.3925,-2.53162 -0.57819,-4.85248 -0.38568,-4.82033 -0.50411,-32.43747 -0.14805,-34.5252 0.18087,-1.06057 0.39534,-1.42954 1.06905,-1.83926 2.9373,-1.78627 16.89379,-1.2953 21.53464,0.75757 1.75677,0.7771 4.92525,3.86338 5.96067,5.80602 3.01898,5.66419 1.98903,11.94837 -2.84906,17.38337 -2.65731,2.98516 -2.67783,2.89802 2.02611,8.6022 3.05823,3.70851 4.45416,5.8485 4.45831,6.83465 10e-4,0.33846 -0.19864,1.1183 -0.44458,1.73298 -1.36373,3.40829 -4.52677,1.73167 -10.93867,-5.79822 -3.30687,-3.88346 -5.73486,-6.32322 -6.88737,-6.92077 -0.75676,-0.39237 -1.58496,-0.5298 -3.17386,-0.52668 -1.18244,0.002 -2.30741,0.10421 -2.49993,0.2264 -0.60129,0.38165 -0.89171,2.00348 -0.89738,5.01133 -0.006,3.4241 -0.38502,6.3398 -0.98818,7.61085 -0.8169,1.72149 -2.82585,2.4376 -4.48155,1.59749 z m 11.80633,-21.7965 c 3.57585,-0.52083 6.1623,-1.35123 7.18536,-2.30691 1.00326,-0.93718 1.66284,-3.15261 1.66284,-5.58517 0,-2.31302 -0.44567,-3.44958 -1.78585,-4.55426 -1.837,-1.51422 -4.12521,-2.07649 -9.04667,-2.22302 l -4.34681,-0.12941 v 7.79628 7.79629 l 1.72492,-0.18707 c 0.94871,-0.10288 3.0215,-0.37591 4.60621,-0.60673 z" id="path356" transform="scale(0.26458333)"/>
    <path style="fill:#f9f9f9;stroke:#000000;stroke-width:0.117295;stroke-linecap:round;stroke-linejoin:round" d="" id="path1116" transform="scale(0.26458333)"/>
  </g>
</svg>