<?xml version="1.0" encoding="UTF-8" standalone="no"?>
<svg
   version="1.1"
   id="svg5"
   inkscape:version="1.1.2 (b8e25be833, 2022-02-05)"
   sodipodi:docname="marker_icon.svg"
   viewBox="52.83 89.21 75.58 73.71"
   xmlns:inkscape="http://www.inkscape.org/namespaces/inkscape"
   xmlns:sodipodi="http://sodipodi.sourceforge.net/DTD/sodipodi-0.dtd"
   xmlns="http://www.w3.org/2000/svg"
   xmlns:svg="http://www.w3.org/2000/svg">
  <sodipodi:namedview
     id="namedview7"
     pagecolor="#ffffff"
     bordercolor="#666666"
     borderopacity="1.0"
     inkscape:pageshadow="2"
     inkscape:pageopacity="0.0"
     inkscape:pagecheckerboard="0"
     inkscape:document-units="mm"
     showgrid="false"
     inkscape:zoom="3.6233469"
     inkscape:cx="-24.148943"
     inkscape:cy="36.154418"
     inkscape:window-width="1920"
     inkscape:window-height="1027"
     inkscape:window-x="-8"
     inkscape:window-y="-8"
     inkscape:window-maximized="1"
     inkscape:current-layer="layer1"
     inkscape:object-paths="true" />
  <defs
     id="defs2" />
  <g
     inkscape:label="Warstwa 1"
     inkscape:groupmode="layer"
     id="layer1">
    <path
       id="path739"
       style="fill:#000000;stroke-width:0.335934"
       d="m 94.957555,90.283341 c -12.388583,0 -22.572139,7.271025 -26.449225,18.887259 -1.164376,3.4886 -1.334418,10.05927 -0.375236,14.50683 1.915989,8.88412 6.552282,17.81143 13.708865,26.40141 1.430309,1.7168 4.827351,5.22761 7.547876,7.8028 2.720537,2.57518 5.225445,4.68361 5.56772,4.68361 0.841962,0 9.887825,-8.61215 13.115595,-12.48641 7.15659,-8.58998 11.79288,-17.51729 13.70886,-26.40141 0.95918,-4.44756 0.78913,-11.01823 -0.37523,-14.50683 -3.8771,-11.616234 -14.06065,-18.887259 -26.449225,-18.887259 z m 4.619477,20.699099 c 3.994688,0.002 4.668518,0.0865 6.199038,0.77858 2.13667,0.96632 3.42559,2.25577 4.10987,4.1112 1.35522,3.67457 -0.23593,7.70425 -3.74477,9.4885 -0.70339,0.35768 -2.21579,0.5807 -4.57131,0.67186 l -3.521659,0.13583 v 2.85236 c 0,1.78182 -0.153438,3.00401 -0.410739,3.25016 -0.226691,0.21685 -0.892536,0.39293 -1.478132,0.39293 -0.585609,0 -1.248923,-0.17608 -1.4756,-0.39293 -0.589153,-0.56362 -0.589153,-20.33439 0,-20.89799 0.278823,-0.26674 1.861065,-0.39299 4.893302,-0.3905 z m -13.062342,0.0146 c 0.547755,0.0345 1.06224,0.27665 1.381799,0.7131 0.453654,0.61954 0.534968,2.15184 0.534968,10.11185 0,7.96001 -0.08139,9.49231 -0.534968,10.11185 -0.634951,0.86722 -2.246413,0.97984 -3.047549,0.21345 -0.466518,-0.44628 -0.5375,-1.84329 -0.5375,-10.29862 0,-9.06013 0.04452,-9.82168 0.62624,-10.32529 0.448242,-0.38807 1.029268,-0.56087 1.57701,-0.52634 z m 11.533511,3.597 v 3.94141 3.94384 h 2.226069 c 2.5854,0 4.71872,-0.71025 5.48153,-1.82396 0.29458,-0.43011 0.53496,-1.42385 0.53496,-2.20961 0,-1.13052 -0.19574,-1.60998 -0.94316,-2.29209 -1.30508,-1.19107 -2.51099,-1.55959 -5.08855,-1.55959 z m -46.136563,58.75983 c -0.01298,0.005 -0.02492,0.013 -0.03804,0.0194 0.0235,0.0313 0.04583,0.057 0.0457,0.0437 -3.12e-4,-0.0213 -0.0039,-0.0418 -0.0078,-0.0631 z m 54.485612,8.06474 c -0.0406,3.2e-4 -0.0807,1e-5 -0.11657,0.005 0.0336,0.0196 0.0694,0.032 0.10399,0.0486 0.004,-0.018 0.009,-0.0355 0.013,-0.0534 z" />
    <path
       style="fill:#f9f9f9;stroke:#000000;stroke-width:0.66352;stroke-linecap:round;stroke-linejoin:round"
       d=""
       id="path1429"
       transform="translate(52.83,89.21)" />
    <path
       style="fill:#f9f9f9;stroke:#000000;stroke-width:0.23459;stroke-linecap:round;stroke-linejoin:round"
       d=""
       id="path2248"
       transform="translate(52.83,89.21)" />
    <path
       style="fill:#f9f9f9;stroke:#000000;stroke-width:0.23459;stroke-linecap:round;stroke-linejoin:round"
       d=""
       id="path2287"
       transform="translate(52.83,89.21)" />
    <path
       style="fill:#f9f9f9;stroke:#000000;stroke-width:0.23459;stroke-linecap:round;stroke-linejoin:round"
       d=""
       id="path2326"
       transform="translate(52.83,89.21)" />
    <path
       style="fill:#000000;stroke:#000000;stroke-width:0.16588;stroke-linecap:round;stroke-linejoin:round"
       d="m 33.087589,43.392539 c -0.387557,-0.05664 -0.830803,-0.265107 -1.028169,-0.483568 -0.454962,-0.503588 -0.505664,-1.27817 -0.547684,-8.366902 -0.02991,-5.045557 0.02695,-9.838844 0.127897,-10.782199 0.116026,-1.084269 0.305445,-1.414266 0.99775,-1.738234 0.994267,-0.465274 2.226722,-0.0772 2.55683,0.80509 0.23344,0.623926 0.288108,1.385764 0.354036,4.933779 0.05846,3.14622 0.025,10.611507 -0.05512,12.296167 -0.05562,1.169495 -0.156461,1.96572 -0.296299,2.339471 -0.260273,0.695642 -1.18337,1.131709 -2.109241,0.996396 z"
       id="path10030"
       transform="translate(52.83,89.21)" />
    <path
       style="fill:#000000;stroke:#000000;stroke-width:0.16588;stroke-linecap:round;stroke-linejoin:round"
       d="m 42.748991,43.371332 c -0.484184,-0.09112 -0.820268,-0.249947 -0.904482,-0.427442 -0.240279,-0.506428 -0.397012,-4.568386 -0.39761,-10.304562 -6.12e-4,-5.879865 0.164234,-10.018458 0.414247,-10.400026 0.155866,-0.237881 0.820607,-0.335791 2.804481,-0.413072 1.522815,-0.05932 4.742786,-0.02608 5.659435,0.05842 1.112725,0.102576 1.782731,0.298334 2.9029,0.848152 2.050192,1.006304 3.254664,2.298129 3.874561,4.155555 0.339171,1.016274 0.479408,2.365435 0.349367,3.361107 -0.312044,2.389196 -1.718073,4.487351 -3.807589,5.681897 -1.036714,0.592675 -2.161083,0.760185 -6.075774,0.905178 -1.180675,0.04373 -2.19608,0.08916 -2.256456,0.100959 l -0.109773,0.02145 -10e-4,1.74325 c -0.0014,2.460341 -0.09809,3.70484 -0.324691,4.180034 -0.04268,0.08949 -0.157003,0.207157 -0.254058,0.261473 -0.431737,0.24162 -1.262732,0.342583 -1.873553,0.22763 z m 6.471181,-10.193816 c 1.983241,-0.299165 3.413643,-1.020713 3.849856,-1.942009 0.317767,-0.671134 0.476351,-1.720852 0.38631,-2.557117 -0.04742,-0.440375 -0.08624,-0.587466 -0.234883,-0.88989 -0.20211,-0.411205 -0.601539,-0.841705 -1.189507,-1.282036 -1.237768,-0.92697 -2.335788,-1.157517 -5.524565,-1.159972 l -1.305085,-0.001 v 3.982323 3.982322 l 1.744179,-0.02637 c 1.248506,-0.01888 1.894662,-0.04907 2.273695,-0.106246 z"
       id="path10069"
       transform="translate(52.83,89.21)" />
    <ellipse
       style="fill:#f9f9f9;stroke:#000000;stroke-width:4.18342;stroke-linecap:round;stroke-linejoin:round"
       id="path10224"
       cx="95.133141"
       cy="119.83665"
       rx="8.4328213"
       ry="20.453381" />
  </g>
</svg>
